<?xml version="1.0" standalone="no"?>
<!DOCTYPE svg PUBLIC "-//W3C//DTD SVG 20010904//EN"
 "http://www.w3.org/TR/2001/REC-SVG-20010904/DTD/svg10.dtd">
<svg version="1.0" xmlns="http://www.w3.org/2000/svg"
 width="700.000000pt" height="700.000000pt" viewBox="0 0 700.000000 700.000000"
 preserveAspectRatio="xMidYMid meet">
<metadata>
Created by potrace 1.14, written by Peter Selinger 2001-2017
</metadata>
<g transform="translate(0.000000,700.000000) scale(0.100000,-0.100000)"
fill="#000000" stroke="none">
<path d="M3278 6995 c-1 -1 -42 -5 -89 -9 -47 -4 -95 -8 -105 -10 -10 -2 -46
-7 -79 -11 -32 -4 -68 -9 -80 -11 -11 -2 -45 -8 -75 -14 -83 -15 -89 -16 -180
-40 -47 -12 -95 -24 -107 -26 -39 -7 -261 -84 -367 -126 -124 -49 -349 -158
-434 -210 -34 -21 -67 -38 -72 -38 -6 0 -10 -4 -10 -10 0 -5 -5 -10 -11 -10
-15 0 -206 -131 -323 -223 -484 -375 -868 -887 -1096 -1458 -66 -165 -142
-409 -165 -530 -4 -19 -19 -88 -30 -139 0 -3 -4 -27 -9 -55 -4 -27 -9 -63 -12
-79 -3 -16 -7 -50 -9 -75 -3 -25 -8 -82 -12 -126 -15 -157 -8 -596 12 -705 2
-14 7 -45 9 -70 37 -336 168 -755 345 -1103 221 -434 512 -798 891 -1114 102
-84 305 -233 320 -233 5 0 10 -4 10 -10 0 -5 4 -10 10 -10 5 0 42 -21 81 -46
265 -169 703 -346 1044 -420 72 -16 211 -41 274 -50 25 -3 57 -8 71 -10 163
-25 682 -25 842 1 13 2 46 6 73 10 28 3 57 8 65 10 8 2 31 6 50 9 209 33 458
104 693 197 490 195 955 522 1307 918 36 41 70 79 76 85 6 6 48 61 94 121 343
451 562 948 664 1505 13 74 27 164 31 200 4 36 9 81 12 100 8 68 10 546 2 610
-4 36 -10 90 -13 120 -8 73 -12 103 -26 180 -6 36 -13 79 -16 95 -12 66 -74
306 -104 394 -228 695 -663 1300 -1246 1733 -444 329 -996 563 -1524 643 -25
4 -53 9 -62 11 -9 1 -43 6 -75 9 -32 4 -76 9 -98 12 -44 5 -541 13 -547 8z
m522 -358 c14 -3 53 -8 87 -11 87 -9 218 -32 336 -61 56 -14 111 -27 122 -30
166 -38 524 -188 703 -294 29 -17 55 -31 58 -31 10 0 244 -162 329 -227 154
-120 332 -289 445 -423 30 -36 58 -67 61 -70 3 -3 37 -48 76 -100 328 -438
525 -920 607 -1480 21 -144 29 -531 14 -690 -49 -524 -223 -1018 -511 -1453
-414 -625 -1026 -1078 -1747 -1291 -91 -27 -279 -71 -345 -80 -22 -4 -53 -8
-70 -11 -155 -24 -249 -30 -465 -30 -180 0 -253 4 -400 20 -76 8 -231 37 -348
66 -885 216 -1650 823 -2060 1638 -185 365 -289 726 -329 1136 -15 149 -6 654
11 685 2 3 6 28 10 55 8 63 17 119 40 230 57 275 204 644 361 910 345 583 898
1066 1502 1310 48 20 97 40 108 45 56 25 308 101 385 116 14 3 52 11 85 19 98
22 246 43 360 51 44 4 82 8 85 11 6 5 458 -4 490 -10z"/>
<path d="M1260 4280 c-19 -4 -47 -12 -61 -18 -34 -14 -89 -77 -90 -105 -8
-116 31 -155 186 -193 76 -18 110 -41 99 -67 -8 -21 -36 -30 -95 -28 -45 1
-123 24 -143 42 -9 8 -54 -71 -55 -98 -1 -11 52 -34 119 -51 62 -16 173 -7
224 18 65 31 91 71 91 142 0 49 -4 61 -29 87 -19 20 -51 37 -85 47 -163 47
-166 48 -169 72 -7 46 93 61 175 27 19 -8 39 -15 43 -15 4 0 17 23 29 52 17
40 19 53 9 60 -42 27 -178 42 -248 28z"/>
<path d="M2120 4098 c2 -162 4 -187 22 -223 43 -85 121 -125 234 -120 108 4
184 57 214 148 10 32 17 244 11 354 -1 22 -5 23 -71 22 l-70 -1 0 -160 c0
-211 -18 -251 -109 -242 -75 9 -85 35 -86 234 l-1 165 -72 2 -73 2 1 -181z"/>
<path d="M3219 4272 c-1 -9 -1 -484 0 -498 1 -8 25 -12 71 -11 l70 1 0 63 c0
54 4 67 28 93 l27 31 72 -93 73 -94 85 0 c61 -1 83 2 77 10 -117 153 -151 198
-179 233 l-34 41 58 63 c32 35 77 84 101 108 23 25 42 49 42 53 0 3 -33 7 -72
7 l-73 1 -102 -107 -103 -108 0 107 0 107 -70 0 c-38 0 -70 -3 -71 -7z"/>
<path d="M4287 4272 c-3 -6 -1 -487 2 -503 0 -4 33 -7 71 -7 l70 0 0 99 c0 87
2 99 18 100 57 4 159 4 170 1 8 -3 12 -32 12 -102 l0 -97 70 0 c39 0 70 2 71
6 1 3 2 117 3 254 1 279 9 256 -86 256 l-57 0 -3 -97 -3 -97 -97 0 -98 -1 0
98 0 97 -70 0 c-38 0 -71 -3 -73 -7z"/>
<path d="M5538 4232 c-11 -26 -33 -75 -49 -110 -16 -35 -29 -65 -29 -67 0 -2
-18 -42 -41 -91 -22 -48 -44 -97 -49 -108 -5 -12 -15 -37 -24 -57 l-15 -36 72
2 c40 1 75 3 78 4 3 0 11 19 18 41 6 21 16 42 23 46 6 4 56 7 111 8 l100 1 20
-45 c11 -25 21 -47 24 -50 2 -2 37 -5 78 -7 l74 -2 -29 67 c-16 37 -67 153
-113 257 l-84 190 -72 2 -72 2 -21 -47z m126 -185 c14 -37 26 -69 26 -72 0 -3
-29 -5 -64 -5 l-64 0 31 79 c18 44 35 77 38 73 3 -4 18 -37 33 -75z"/>
<path d="M2715 3421 c-102 -26 -151 -82 -149 -169 1 -50 4 -59 37 -88 33 -31
63 -43 182 -73 58 -15 79 -33 71 -59 -13 -40 -123 -42 -210 -3 l-45 20 -24
-52 c-14 -29 -21 -55 -18 -60 16 -17 122 -46 182 -50 159 -10 262 57 262 171
0 79 -47 119 -184 153 -92 23 -109 32 -109 60 0 47 120 55 200 14 l28 -14 21
51 c11 28 21 54 21 58 0 27 -200 58 -265 41z"/>
<path d="M4165 3421 c-132 -34 -215 -134 -216 -260 -2 -172 134 -288 320 -274
55 4 153 36 174 57 8 8 12 44 11 112 -1 54 -2 102 -3 106 0 3 -29 6 -63 5
l-63 -2 -1 -68 c-1 -80 -7 -87 -79 -87 -100 0 -160 71 -144 172 12 77 60 118
144 123 31 2 78 -16 102 -38 l22 -19 45 37 c25 21 46 41 46 44 0 22 -62 67
-114 82 -45 14 -146 19 -181 10z"/>
<path d="M5935 3423 c-109 -24 -164 -83 -161 -168 4 -82 38 -115 151 -145 44
-12 87 -25 95 -28 8 -3 18 -5 22 -4 4 1 12 -8 18 -19 9 -17 8 -25 -7 -41 -16
-18 -26 -20 -85 -15 -36 3 -87 15 -113 26 l-46 20 -16 -37 c-8 -20 -19 -45
-25 -55 -17 -33 103 -71 223 -71 144 1 239 86 219 195 -13 70 -52 98 -183 130
-45 12 -88 25 -94 31 -20 16 -15 46 7 58 31 16 113 14 148 -4 17 -9 37 -16 45
-16 11 0 57 82 57 102 0 23 -196 54 -255 41z"/>
<path d="M827 3412 c-2 -4 -4 -120 -4 -259 -1 -178 3 -253 11 -256 6 -2 76 -3
156 -2 164 2 221 15 284 67 109 90 116 277 13 375 -68 65 -107 76 -294 79 -90
1 -164 0 -166 -4z m323 -135 c58 -36 78 -121 45 -191 -22 -47 -64 -67 -150
-72 l-75 -5 0 146 0 146 74 -2 c54 -1 83 -7 106 -22z"/>
<path d="M1766 3411 c-1 -3 -3 -121 -2 -261 l1 -255 207 0 c133 0 209 3 211
10 2 5 3 30 2 55 l-1 45 -137 3 -138 3 3 47 3 47 113 0 c61 0 112 3 113 7 1 5
1 19 1 33 0 76 9 70 -104 69 -57 0 -109 2 -115 4 -8 2 -13 21 -13 43 0 30 4
39 18 40 9 1 64 2 122 3 58 2 110 3 115 4 8 2 12 65 6 104 -1 8 -400 8 -405
-1z"/>
<path d="M3399 3407 c-7 -85 -2 -500 6 -506 12 -9 116 -8 130 1 8 5 13 435 6
505 -1 16 -141 17 -142 0z"/>
<path d="M4873 3157 l2 -261 55 -2 c93 -4 88 -11 86 136 0 72 2 130 6 130 3 0
37 -37 74 -82 72 -88 87 -105 127 -153 23 -27 31 -30 86 -31 l61 -1 0 263 0
263 -72 -2 -73 -2 0 -137 c0 -76 0 -138 0 -138 -1 0 -52 62 -115 138 l-115
139 -62 1 -62 1 2 -262z"/>
</g>
</svg>
